<?xml version="1.0" standalone="no"?>
<!DOCTYPE svg PUBLIC "-//W3C//DTD SVG 20010904//EN" "http://www.w3.org/TR/2001/REC-SVG-20010904/DTD/svg10.dtd">
<svg xmlns="http://www.w3.org/2000/svg" version="1.0" width="512.000000pt" height="512.000000pt" viewBox="0 0 512.000000 512.000000" preserveAspectRatio="xMidYMid meet">
<metadata>
Created by potrace 1.16, written by Peter Selinger 2001-2019
<meta name="Producer" content="Online-Convert"/></metadata>
<g transform="translate(0.000000,512.000000) scale(0.100000,-0.100000)" fill="#fff" stroke="none">
<path d="M1512 4780 c-59 -36 -72 -71 -72 -192 l0 -108 -364 0 c-329 0 -370 -2 -425 -19 -147 -46 -272 -172 -315 -320 -14 -49 -16 -231 -16 -1742 0 -1628 1 -1689 19 -1748 46 -147 172 -272 320 -315 49 -14 245 -16 1901 -16 1656 0 1852 2 1901 16 148 43 274 168 320 315 18 59 19 120 19 1748 0 1511 -2 1693 -16 1742 -43 148 -168 274 -315 320 -55 17 -96 19 -425 19 l-364 0 0 108 c0 121 -13 156 -72 192 -45 27 -131 27 -176 0 -59 -36 -72 -71 -72 -192 l0 -108 -800 0 -800 0 0 108 c0 89 -3 112 -20 140 -30 48 -75 72 -140 72 -37 0 -66 -6 -88 -20z m2832 -630 c49 -11 85 -37 111 -81 18 -31 20 -55 23 -291 l3 -258 -1921 0 -1921 0 3 258 c3 236 5 260 23 291 25 42 62 71 106 81 48 11 3525 12 3573 0z m134 -2167 c-3 -1198 -3 -1219 -23 -1252 -26 -44 -62 -70 -111 -81 -52 -13 -3516 -13 -3568 0 -49 11 -85 37 -111 81 -20 33 -20 54 -23 1252 l-2 1217 1920 0 1920 0 -2 -1217z"/>
<path d="M3306 2718 c-22 -8 -862 -716 -1034 -871 l-22 -21 -203 201 c-173 172 -208 202 -240 208 -86 16 -160 -14 -191 -79 -18 -39 -21 -117 -5 -149 16 -31 519 -535 551 -553 39 -20 126 -18 163 5 17 10 287 239 601 508 408 351 575 500 587 526 63 131 -70 275 -207 225z"/>
</g>
</svg>
