<?xml version="1.0" standalone="no"?>
<!DOCTYPE svg PUBLIC "-//W3C//DTD SVG 20010904//EN" "http://www.w3.org/TR/2001/REC-SVG-20010904/DTD/svg10.dtd">
<svg xmlns="http://www.w3.org/2000/svg" version="1.0" width="512.000000pt" height="512.000000pt" viewBox="0 0 512.000000 512.000000" preserveAspectRatio="xMidYMid meet">
<metadata>
Created by potrace 1.16, written by Peter Selinger 2001-2019
<meta name="Producer" content="Online-Convert"/></metadata>
<g transform="translate(0.000000,512.000000) scale(0.100000,-0.100000)" fill="#fff" stroke="none">
<path d="M2350 4688 c-239 -22 -503 -97 -727 -207 -439 -216 -768 -545 -984 -984 -289 -590 -289 -1285 0 -1874 115 -232 232 -396 415 -578 167 -167 330 -285 544 -393 740 -376 1637 -284 2296 236 91 71 267 247 338 338 334 422 501 965 460 1487 -14 166 -42 329 -65 374 -20 38 -75 89 -110 102 -77 29 -193 5 -243 -51 -60 -65 -69 -132 -40 -283 23 -122 32 -346 17 -470 -51 -432 -251 -821 -561 -1093 -534 -467 -1277 -565 -1892 -250 -850 435 -1183 1461 -747 2297 138 264 323 471 569 635 423 284 944 360 1439 211 87 -26 171 -32 214 -16 40 16 99 73 118 116 37 81 19 178 -45 241 -34 35 -58 47 -141 73 -268 85 -571 116 -855 89z"/>
<path d="M4180 4254 c-23 -9 -350 -330 -932 -912 l-898 -897 -252 252 c-271 269 -301 292 -391 293 -164 1 -266 -167 -192 -316 32 -65 681 -715 737 -739 53 -21 143 -19 192 5 28 13 359 338 1027 1007 802 803 989 995 999 1026 20 64 9 158 -24 206 -55 78 -177 113 -266 75z"/>
</g>
</svg>
