<?xml version="1.0" standalone="no"?>
<!DOCTYPE svg PUBLIC "-//W3C//DTD SVG 20010904//EN" "http://www.w3.org/TR/2001/REC-SVG-20010904/DTD/svg10.dtd">
<svg xmlns="http://www.w3.org/2000/svg" version="1.0" width="512.000000pt" height="512.000000pt" viewBox="0 0 512.000000 512.000000" preserveAspectRatio="xMidYMid meet">
<metadata>
Created by potrace 1.16, written by Peter Selinger 2001-2019
<meta name="Producer" content="Online-Convert"/></metadata>
<g transform="translate(0.000000,512.000000) scale(0.100000,-0.100000)" fill="#fff" stroke="none">
<path d="M1149 4477 c-144 -49 -267 -150 -330 -272 -20 -39 -92 -205 -159 -370 -67 -165 -125 -303 -129 -308 -4 -4 -56 7 -117 24 -201 57 -267 56 -339 -3 -62 -52 -75 -92 -75 -248 0 -74 5 -152 10 -172 25 -89 129 -173 229 -185 43 -5 51 -9 45 -22 -59 -141 -104 -303 -134 -477 -19 -112 -20 -165 -20 -869 l0 -750 24 -50 c29 -62 76 -107 141 -137 48 -22 61 -23 285 -23 224 0 237 1 285 23 65 30 112 75 141 137 22 47 24 61 24 243 l0 192 1525 0 1525 0 0 -168 c0 -187 11 -248 55 -312 70 -101 158 -124 449 -118 185 3 194 4 249 31 31 16 72 47 91 69 70 81 67 51 63 895 -4 817 -2 795 -60 1029 -14 55 -42 144 -61 196 -20 53 -36 98 -36 100 0 3 23 8 51 11 100 12 204 96 229 185 5 20 10 98 10 172 0 156 -13 196 -75 248 -73 59 -137 60 -343 2 -62 -18 -115 -30 -116 -28 -2 1 -63 149 -136 328 -72 179 -146 349 -163 379 -63 106 -195 207 -326 250 -64 21 -72 21 -1405 21 l-1341 -1 -66 -22z m2591 -208 c64 -14 166 -81 202 -134 31 -45 447 -1052 454 -1099 7 -43 -24 -97 -66 -118 -33 -17 -139 -18 -1776 -18 l-1741 0 -34 23 c-44 30 -61 63 -56 112 3 22 100 273 217 558 178 432 220 525 253 563 45 51 111 93 176 110 62 17 2294 20 2371 3z m-2158 -1973 c43 -29 50 -70 46 -293 l-3 -203 -28 -27 -27 -28 -415 -3 c-364 -2 -419 -1 -446 13 -52 27 -59 61 -59 276 0 233 7 254 90 283 8 3 195 4 415 3 372 -2 402 -3 427 -21z m2824 5 c45 -30 49 -46 52 -251 4 -223 -3 -261 -51 -290 -30 -19 -53 -20 -444 -20 l-413 0 -32 29 -33 29 -3 213 c-2 145 1 221 8 240 12 29 41 53 75 62 11 3 200 4 420 4 324 -2 404 -5 421 -16z"/>
</g>
</svg>
