<?xml version="1.0" standalone="no"?>
<!DOCTYPE svg PUBLIC "-//W3C//DTD SVG 20010904//EN" "http://www.w3.org/TR/2001/REC-SVG-20010904/DTD/svg10.dtd">
<svg xmlns="http://www.w3.org/2000/svg" version="1.0" width="512.000000pt" height="512.000000pt" viewBox="0 0 512.000000 512.000000" preserveAspectRatio="xMidYMid meet">
<metadata>
Created by potrace 1.16, written by Peter Selinger 2001-2019
<meta name="Producer" content="Online-Convert"/></metadata>
<g transform="translate(0.000000,512.000000) scale(0.100000,-0.100000)" fill="#fff" stroke="none">
<path d="M3070 3911 c-2289 -747 -2459 -801 -2519 -801 -77 0 -155 -39 -196 -98 l-30 -44 0 -957 0 -957 28 -42 c15 -23 46 -54 69 -69 l42 -28 1875 -3 c1331 -2 1887 0 1914 8 48 14 102 61 130 114 22 40 22 49 25 516 l3 476 142 47 c152 50 192 77 231 154 39 78 36 89 -259 1009 -216 675 -281 866 -303 893 -41 51 -95 75 -172 78 -61 2 -122 -16 -980 -296z m1012 112 c18 -21 548 -1670 548 -1706 0 -14 -6 -30 -14 -36 -13 -11 -181 -71 -198 -71 -4 0 -8 156 -8 348 0 201 -4 362 -10 383 -19 66 -51 104 -134 154 -11 6 -50 119 -110 318 -65 212 -102 317 -120 341 -34 45 -117 86 -175 86 -26 0 -110 -21 -203 -50 -144 -46 -159 -53 -174 -81 -26 -52 0 -112 55 -124 18 -4 75 10 168 40 77 25 147 45 155 45 31 0 49 -42 126 -295 l79 -260 -575 -3 -575 -2 -47 44 c-78 73 -154 103 -289 115 -73 6 -75 7 -85 38 -6 18 -19 40 -29 50 -24 24 -89 23 -117 -2 -19 -17 -21 -28 -18 -76 l4 -57 -40 -20 c-23 -10 -61 -36 -84 -56 l-44 -36 -496 0 c-272 0 -493 2 -491 4 2 2 497 164 1099 359 602 196 1239 403 1415 460 176 58 332 105 346 106 14 1 33 -7 41 -16z m132 -1099 c9 -8 18 -25 21 -37 3 -12 4 -417 3 -900 -3 -856 -3 -879 -22 -893 -17 -12 -286 -14 -1856 -14 l-1837 0 -19 21 c-18 20 -19 50 -19 909 0 859 1 889 19 909 l19 21 1838 0 c1656 0 1839 -2 1853 -16z"/>
<path d="M729 2782 c-39 -20 -62 -41 -84 -77 l-30 -48 -3 -626 c-2 -446 0 -638 9 -667 14 -54 60 -109 112 -137 39 -20 55 -22 225 -22 l184 0 25 29 c20 24 24 36 19 65 -10 65 -28 71 -201 71 -139 0 -155 2 -179 21 l-26 20 0 598 c0 557 1 599 18 614 14 12 49 16 180 19 l164 3 25 29 c20 24 24 36 19 65 -10 66 -26 71 -226 71 -175 0 -178 0 -231 -28z"/>
<path d="M2300 2790 c-15 -15 -20 -33 -20 -69 l0 -48 -65 -18 c-117 -31 -233 -124 -279 -224 -16 -35 -21 -65 -21 -131 0 -74 4 -92 29 -139 53 -102 164 -185 287 -214 l49 -12 0 -207 c0 -238 6 -227 -90 -182 -87 40 -140 101 -140 159 0 33 -24 81 -45 89 -36 13 -82 6 -103 -17 -17 -18 -22 -36 -22 -78 0 -150 155 -307 339 -342 l61 -12 0 -46 c0 -35 5 -51 23 -67 25 -23 75 -29 107 -12 20 11 40 60 40 101 0 25 5 29 58 44 113 33 220 115 270 210 24 44 27 61 27 145 0 87 -3 100 -30 148 -53 97 -182 190 -286 207 l-39 7 0 209 c0 115 4 209 8 209 29 0 106 -36 141 -67 47 -40 65 -71 75 -128 10 -55 40 -85 86 -85 26 0 43 7 59 24 21 22 23 33 19 88 -2 38 -13 82 -27 111 -49 102 -175 193 -302 219 -54 11 -59 14 -59 39 0 39 -20 88 -40 99 -32 17 -88 12 -110 -10z m-20 -491 l0 -190 -22 7 c-113 35 -195 136 -174 217 11 44 52 92 106 125 93 55 90 61 90 -159z m281 -445 c80 -55 101 -150 49 -222 -28 -39 -119 -102 -147 -102 -10 0 -13 45 -13 190 l0 190 38 -15 c20 -9 53 -27 73 -41z"/>
<path d="M3568 2798 c-40 -30 -43 -101 -6 -135 17 -15 43 -18 182 -21 130 -3 164 -7 179 -19 16 -15 17 -57 17 -613 0 -499 -2 -599 -14 -616 -13 -17 -29 -19 -168 -22 -189 -3 -196 -5 -213 -45 -16 -39 -10 -80 17 -104 18 -16 41 -18 202 -18 167 0 184 2 222 22 53 28 100 82 114 130 8 26 10 234 8 674 l-3 635 -28 42 c-15 23 -46 54 -69 69 -41 28 -43 28 -232 31 -145 2 -195 0 -208 -10z"/>
</g>
</svg>
